<svg xmlns="http://www.w3.org/2000/svg" xmlns:xlink="http://www.w3.org/1999/xlink" width="500" zoomAndPan="magnify" viewBox="0 0 375 374.999991" height="500" preserveAspectRatio="xMidYMid meet" version="1.0"><defs><g/></defs><g fill="#23be5f" fill-opacity="1"><g transform="translate(67.862204, 174.400216)"><g><path d="M 7.875 2.390625 C 7.53125 2.328125 7.28125 2.15625 7.125 1.875 C 6.976562 1.601562 6.90625 1.300781 6.90625 0.96875 C 6.90625 0.6875 6.96875 0.441406 7.09375 0.234375 L 12.75 -10.578125 C 12.78125 -10.703125 12.832031 -11.175781 12.90625 -12 C 12.976562 -12.832031 13.0625 -13.867188 13.15625 -15.109375 C 13.25 -16.359375 13.347656 -17.75 13.453125 -19.28125 C 13.566406 -20.8125 13.679688 -22.328125 13.796875 -23.828125 C 13.921875 -25.335938 14.035156 -26.773438 14.140625 -28.140625 C 14.253906 -29.503906 14.359375 -30.644531 14.453125 -31.5625 C 14.484375 -31.925781 14.523438 -32.484375 14.578125 -33.234375 C 14.640625 -33.992188 14.703125 -34.863281 14.765625 -35.84375 C 14.828125 -36.820312 14.90625 -37.878906 15 -39.015625 C 15.09375 -40.148438 15.1875 -41.285156 15.28125 -42.421875 L 15.921875 -52.046875 C 15.085938 -51.859375 14.226562 -51.664062 13.34375 -51.46875 C 12.457031 -51.269531 11.59375 -51.09375 10.75 -50.9375 C 9.90625 -50.78125 9.101562 -50.648438 8.34375 -50.546875 C 7.59375 -50.441406 6.941406 -50.390625 6.390625 -50.390625 C 6.054688 -50.390625 5.804688 -50.539062 5.640625 -50.84375 C 5.472656 -51.144531 5.390625 -51.46875 5.390625 -51.8125 C 5.390625 -52.207031 5.476562 -52.5 5.65625 -52.6875 L 17.34375 -63.59375 C 18.289062 -64.445312 19.234375 -65.140625 20.171875 -65.671875 C 21.109375 -66.210938 22.234375 -66.632812 23.546875 -66.9375 C 24.867188 -67.25 26.488281 -67.457031 28.40625 -67.5625 C 30.320312 -67.675781 32.753906 -67.734375 35.703125 -67.734375 C 40.734375 -67.734375 45.195312 -67.210938 49.09375 -66.171875 C 52.988281 -65.128906 56.285156 -63.640625 58.984375 -61.703125 C 60.984375 -60.316406 62.765625 -58.875 64.328125 -57.375 C 65.890625 -55.875 67.207031 -54.207031 68.28125 -52.375 C 69.351562 -50.550781 70.164062 -48.539062 70.71875 -46.34375 C 71.269531 -44.15625 71.546875 -41.679688 71.546875 -38.921875 C 71.546875 -33.679688 70.765625 -29.019531 69.203125 -24.9375 C 67.640625 -20.851562 65.507812 -17.285156 62.8125 -14.234375 C 60.113281 -11.179688 56.960938 -8.597656 53.359375 -6.484375 C 49.753906 -4.367188 45.898438 -2.648438 41.796875 -1.328125 C 37.703125 -0.015625 33.46875 0.929688 29.09375 1.515625 C 24.726562 2.097656 20.445312 2.390625 16.25 2.390625 Z M 34.609375 -53 L 34.046875 -47.4375 C 33.867188 -45.507812 33.675781 -43.445312 33.46875 -41.25 C 33.269531 -39.050781 33.078125 -36.828125 32.890625 -34.578125 C 32.710938 -32.328125 32.53125 -30.101562 32.34375 -27.90625 C 32.164062 -25.707031 32 -23.65625 31.84375 -21.75 C 31.6875 -19.851562 31.546875 -18.15625 31.421875 -16.65625 C 31.304688 -15.15625 31.203125 -13.957031 31.109375 -13.0625 L 30.96875 -11.6875 C 34.675781 -11.6875 37.8125 -12.285156 40.375 -13.484375 C 42.9375 -14.679688 45.015625 -16.328125 46.609375 -18.421875 C 48.203125 -20.523438 49.359375 -22.988281 50.078125 -25.8125 C 50.804688 -28.632812 51.171875 -31.671875 51.171875 -34.921875 C 51.171875 -37.253906 50.847656 -39.5 50.203125 -41.65625 C 49.554688 -43.820312 48.617188 -45.890625 47.390625 -47.859375 C 46.160156 -49.816406 44.65625 -51.285156 42.875 -52.265625 C 41.101562 -53.253906 39.097656 -53.75 36.859375 -53.75 C 36.484375 -53.75 36.082031 -53.660156 35.65625 -53.484375 C 35.226562 -53.316406 34.878906 -53.15625 34.609375 -53 Z M 34.609375 -53 "/></g></g></g><g fill="#23be5f" fill-opacity="1"><g transform="translate(138.889181, 174.400216)"><g><path d="M 6.390625 1.46875 L 8.703125 -30 C 9.460938 -40.550781 10.023438 -48.296875 10.390625 -53.234375 C 10.765625 -58.171875 10.953125 -60.625 10.953125 -60.59375 C 10.984375 -61.144531 11.015625 -61.601562 11.046875 -61.96875 C 11.078125 -62.34375 11.132812 -62.648438 11.21875 -62.890625 C 11.3125 -63.140625 11.4375 -63.328125 11.59375 -63.453125 C 11.75 -63.578125 11.976562 -63.671875 12.28125 -63.734375 L 28.203125 -67.546875 C 28.597656 -67.671875 29.015625 -67.734375 29.453125 -67.734375 C 29.878906 -67.734375 30.164062 -67.601562 30.3125 -67.34375 C 30.46875 -67.082031 30.546875 -66.550781 30.546875 -65.75 C 30.335938 -63.851562 30.171875 -62.078125 30.046875 -60.421875 C 29.921875 -58.765625 29.816406 -57.179688 29.734375 -55.671875 C 29.660156 -54.171875 29.59375 -52.722656 29.53125 -51.328125 C 29.476562 -49.929688 29.40625 -48.539062 29.3125 -47.15625 C 29.125 -45.65625 28.960938 -44.15625 28.828125 -42.65625 C 28.691406 -41.15625 28.5625 -39.597656 28.4375 -37.984375 C 28.3125 -36.367188 28.179688 -34.664062 28.046875 -32.875 C 27.910156 -31.082031 27.75 -29.128906 27.5625 -27.015625 L 25.53125 -2.765625 C 25.5 -2.484375 25.445312 -2.210938 25.375 -1.953125 C 25.300781 -1.691406 25.09375 -1.484375 24.75 -1.328125 C 24.71875 -1.328125 24.535156 -1.265625 24.203125 -1.140625 C 23.867188 -1.023438 23.425781 -0.867188 22.875 -0.671875 C 22.320312 -0.472656 21.675781 -0.265625 20.9375 -0.046875 C 20.195312 0.171875 19.414062 0.367188 18.59375 0.546875 C 17.207031 0.859375 16 1.164062 14.96875 1.46875 C 13.945312 1.78125 13.035156 2.066406 12.234375 2.328125 C 11.441406 2.585938 10.707031 2.789062 10.03125 2.9375 C 9.351562 3.09375 8.675781 3.171875 8 3.171875 C 7.539062 3.171875 7.15625 3.046875 6.84375 2.796875 C 6.539062 2.554688 6.390625 2.113281 6.390625 1.46875 Z M 6.390625 1.46875 "/></g></g></g><g fill="#23be5f" fill-opacity="1"><g transform="translate(169.618469, 174.400216)"><g><path d="M 45.59375 -61.65625 C 45.84375 -62.664062 46.054688 -63.398438 46.234375 -63.859375 C 46.421875 -64.328125 46.820312 -64.632812 47.4375 -64.78125 L 59.359375 -67.59375 C 59.722656 -67.71875 60.117188 -67.78125 60.546875 -67.78125 C 60.953125 -67.78125 61.242188 -67.640625 61.421875 -67.359375 C 61.609375 -67.085938 61.703125 -66.566406 61.703125 -65.796875 C 61.515625 -65.054688 61.359375 -63.925781 61.234375 -62.40625 C 61.117188 -60.894531 61.03125 -59.234375 60.96875 -57.421875 C 60.90625 -55.609375 60.859375 -53.789062 60.828125 -51.96875 C 60.796875 -50.144531 60.78125 -48.554688 60.78125 -47.203125 L 60.78125 -44.671875 C 60.78125 -42.773438 60.765625 -40.707031 60.734375 -38.46875 C 60.703125 -36.226562 60.660156 -33.957031 60.609375 -31.65625 C 60.566406 -29.351562 60.515625 -27.082031 60.453125 -24.84375 C 60.398438 -22.601562 60.34375 -20.503906 60.28125 -18.546875 L 60 -10.671875 C 59.96875 -10.515625 59.953125 -10.375 59.953125 -10.25 C 59.953125 -10.132812 59.953125 -10.015625 59.953125 -9.890625 L 59.953125 -9.203125 C 59.953125 -8.679688 59.957031 -8.242188 59.96875 -7.890625 C 59.988281 -7.535156 60 -7.222656 60 -6.953125 C 60 -6.640625 59.972656 -6.359375 59.921875 -6.109375 C 59.878906 -5.867188 59.765625 -5.632812 59.578125 -5.40625 C 59.398438 -5.175781 59.148438 -4.9375 58.828125 -4.6875 C 58.503906 -4.445312 58.066406 -4.140625 57.515625 -3.765625 C 57.210938 -3.554688 56.707031 -3.242188 56 -2.828125 C 55.289062 -2.410156 54.503906 -1.941406 53.640625 -1.421875 C 52.785156 -0.898438 51.898438 -0.363281 50.984375 0.1875 C 50.066406 0.738281 49.222656 1.234375 48.453125 1.671875 C 47.679688 2.117188 47.054688 2.476562 46.578125 2.75 C 46.109375 3.03125 45.875 3.171875 45.875 3.171875 L 24.53125 -29.671875 L 22.59375 -2.765625 C 22.5625 -2.515625 22.503906 -2.25 22.421875 -1.96875 C 22.347656 -1.695312 22.144531 -1.484375 21.8125 -1.328125 C 21.53125 -1.210938 21.050781 -1.023438 20.375 -0.765625 C 19.707031 -0.503906 18.921875 -0.207031 18.015625 0.125 C 17.109375 0.46875 16.15625 0.816406 15.15625 1.171875 C 14.164062 1.523438 13.222656 1.847656 12.328125 2.140625 C 11.441406 2.429688 10.648438 2.664062 9.953125 2.84375 C 9.265625 3.03125 8.800781 3.125 8.5625 3.125 C 8.101562 3.125 7.71875 3 7.40625 2.75 C 7.101562 2.507812 6.953125 2.066406 6.953125 1.421875 C 7.253906 -2.410156 7.601562 -6.585938 8 -11.109375 C 8.40625 -15.640625 8.789062 -20.28125 9.15625 -25.03125 C 9.519531 -29.78125 9.863281 -34.523438 10.1875 -39.265625 C 10.507812 -44.003906 10.78125 -48.507812 11 -52.78125 C 11 -52.894531 10.804688 -53.296875 10.421875 -53.984375 C 10.035156 -54.679688 9.601562 -55.4375 9.125 -56.25 C 8.65625 -57.0625 8.226562 -57.828125 7.84375 -58.546875 C 7.457031 -59.265625 7.265625 -59.71875 7.265625 -59.90625 C 7.265625 -60.125 7.378906 -60.320312 7.609375 -60.5 C 7.835938 -60.6875 8.21875 -60.9375 8.75 -61.25 L 21.03125 -68.1875 C 21.125 -68.1875 21.253906 -68.203125 21.421875 -68.234375 C 21.585938 -68.265625 21.734375 -68.28125 21.859375 -68.28125 C 22.191406 -68.28125 22.457031 -68.238281 22.65625 -68.15625 C 22.851562 -68.082031 23.0625 -67.847656 23.28125 -67.453125 L 45.59375 -27.1875 Z M 45.59375 -61.65625 "/></g></g></g><g fill="#23be5f" fill-opacity="1"><g transform="translate(233.055129, 174.400216)"><g><path d="M 25.8125 -31.375 C 25.8125 -29.164062 26.046875 -26.945312 26.515625 -24.71875 C 26.992188 -22.5 27.785156 -20.5 28.890625 -18.71875 C 29.992188 -16.945312 31.453125 -15.507812 33.265625 -14.40625 C 35.078125 -13.300781 37.316406 -12.75 39.984375 -12.75 C 42.035156 -12.863281 43.835938 -13.28125 45.390625 -14 C 46.941406 -14.726562 48.273438 -15.664062 49.390625 -16.8125 C 50.515625 -17.96875 51.441406 -19.285156 52.171875 -20.765625 C 52.910156 -22.253906 53.492188 -23.820312 53.921875 -25.46875 C 54.359375 -27.113281 54.660156 -28.789062 54.828125 -30.5 C 54.992188 -32.21875 55.078125 -33.875 55.078125 -35.46875 C 55.078125 -37.65625 54.785156 -39.765625 54.203125 -41.796875 C 53.617188 -43.835938 52.742188 -45.640625 51.578125 -47.203125 C 50.410156 -48.773438 48.957031 -50.035156 47.21875 -50.984375 C 45.488281 -51.929688 43.476562 -52.40625 41.1875 -52.40625 C 39.375 -52.40625 37.738281 -52.066406 36.28125 -51.390625 C 34.820312 -50.722656 33.523438 -49.828125 32.390625 -48.703125 C 31.253906 -47.585938 30.28125 -46.300781 29.46875 -44.84375 C 28.65625 -43.382812 27.976562 -41.878906 27.4375 -40.328125 C 26.90625 -38.773438 26.507812 -37.222656 26.25 -35.671875 C 25.988281 -34.128906 25.84375 -32.695312 25.8125 -31.375 Z M 34.78125 2.390625 C 30.1875 2.390625 26.078125 1.53125 22.453125 -0.1875 C 18.835938 -1.90625 15.78125 -4.226562 13.28125 -7.15625 C 10.78125 -10.082031 8.859375 -13.46875 7.515625 -17.3125 C 6.179688 -21.164062 5.515625 -25.242188 5.515625 -29.546875 C 5.515625 -34.359375 6.195312 -38.796875 7.5625 -42.859375 C 8.925781 -46.921875 10.835938 -50.523438 13.296875 -53.671875 C 15.753906 -56.816406 18.675781 -59.46875 22.0625 -61.625 C 25.445312 -63.789062 29.164062 -65.394531 33.21875 -66.4375 C 33.59375 -66.4375 33.878906 -66.726562 34.078125 -67.3125 C 34.273438 -67.894531 34.445312 -68.539062 34.59375 -69.25 C 34.75 -69.957031 34.929688 -70.601562 35.140625 -71.1875 C 35.359375 -71.769531 35.671875 -72.0625 36.078125 -72.0625 C 42.023438 -71.445312 47.375 -70.394531 52.125 -68.90625 C 56.882812 -67.414062 60.921875 -65.289062 64.234375 -62.53125 C 67.546875 -59.769531 70.082031 -56.28125 71.84375 -52.0625 C 73.613281 -47.84375 74.5 -42.695312 74.5 -36.625 C 74.5 -32.726562 74.019531 -29.0625 73.0625 -25.625 C 72.113281 -22.1875 70.78125 -19.019531 69.0625 -16.125 C 67.34375 -13.226562 65.28125 -10.632812 62.875 -8.34375 C 60.46875 -6.0625 57.789062 -4.125 54.84375 -2.53125 C 51.90625 -0.9375 48.738281 0.28125 45.34375 1.125 C 41.957031 1.96875 38.4375 2.390625 34.78125 2.390625 Z M 34.78125 2.390625 "/></g></g></g><g fill="#ffffff" fill-opacity="1"><g transform="translate(53.048676, 234.446893)"><g><path d="M 20.3125 0.5 C 16.96875 0.5 13.96875 -0.222656 11.3125 -1.671875 C 8.65625 -3.128906 6.566406 -5.21875 5.046875 -7.9375 C 3.523438 -10.664062 2.765625 -13.851562 2.765625 -17.5 C 2.765625 -21.144531 3.523438 -24.328125 5.046875 -27.046875 C 6.566406 -29.773438 8.65625 -31.867188 11.3125 -33.328125 C 13.96875 -34.785156 16.96875 -35.515625 20.3125 -35.515625 C 22.582031 -35.515625 24.613281 -35.242188 26.40625 -34.703125 C 28.195312 -34.171875 29.976562 -33.40625 31.75 -32.40625 C 32.488281 -32 32.859375 -31.363281 32.859375 -30.5 C 32.859375 -30 32.671875 -29.554688 32.296875 -29.171875 C 31.929688 -28.785156 31.445312 -28.59375 30.84375 -28.59375 C 30.507812 -28.59375 30.207031 -28.660156 29.9375 -28.796875 C 28.46875 -29.554688 27.03125 -30.132812 25.625 -30.53125 C 24.21875 -30.9375 22.597656 -31.140625 20.765625 -31.140625 C 17.890625 -31.140625 15.4375 -30.546875 13.40625 -29.359375 C 11.382812 -28.179688 9.863281 -26.5625 8.84375 -24.5 C 7.832031 -22.445312 7.328125 -20.113281 7.328125 -17.5 C 7.328125 -14.894531 7.832031 -12.5625 8.84375 -10.5 C 9.863281 -8.445312 11.382812 -6.828125 13.40625 -5.640625 C 15.4375 -4.453125 17.890625 -3.859375 20.765625 -3.859375 C 22.597656 -3.859375 24.21875 -4.054688 25.625 -4.453125 C 27.03125 -4.859375 28.46875 -5.445312 29.9375 -6.21875 C 30.207031 -6.351562 30.507812 -6.421875 30.84375 -6.421875 C 31.445312 -6.421875 31.929688 -6.234375 32.296875 -5.859375 C 32.671875 -5.492188 32.859375 -5.046875 32.859375 -4.515625 C 32.859375 -3.640625 32.488281 -3.003906 31.75 -2.609375 C 29.976562 -1.609375 28.195312 -0.835938 26.40625 -0.296875 C 24.613281 0.234375 22.582031 0.5 20.3125 0.5 Z M 20.3125 0.5 "/></g></g></g><g fill="#ffffff" fill-opacity="1"><g transform="translate(87.907263, 234.446893)"><g><path d="M 20.359375 0.5 C 16.847656 0.5 13.769531 -0.265625 11.125 -1.796875 C 8.488281 -3.335938 6.453125 -5.460938 5.015625 -8.171875 C 3.578125 -10.878906 2.828125 -13.988281 2.765625 -17.5 C 2.828125 -21.007812 3.578125 -24.117188 5.015625 -26.828125 C 6.453125 -29.535156 8.488281 -31.660156 11.125 -33.203125 C 13.769531 -34.742188 16.847656 -35.515625 20.359375 -35.515625 C 23.867188 -35.515625 26.9375 -34.742188 29.5625 -33.203125 C 32.1875 -31.660156 34.226562 -29.523438 35.6875 -26.796875 C 37.144531 -24.078125 37.90625 -20.976562 37.96875 -17.5 C 37.90625 -14.019531 37.144531 -10.914062 35.6875 -8.1875 C 34.226562 -5.46875 32.1875 -3.335938 29.5625 -1.796875 C 26.9375 -0.265625 23.867188 0.5 20.359375 0.5 Z M 20.359375 -3.765625 C 23.035156 -3.765625 25.359375 -4.363281 27.328125 -5.5625 C 29.304688 -6.769531 30.8125 -8.410156 31.84375 -10.484375 C 32.882812 -12.554688 33.40625 -14.894531 33.40625 -17.5 C 33.40625 -20.113281 32.882812 -22.457031 31.84375 -24.53125 C 30.8125 -26.601562 29.304688 -28.238281 27.328125 -29.4375 C 25.359375 -30.644531 23.035156 -31.25 20.359375 -31.25 C 17.648438 -31.25 15.316406 -30.644531 13.359375 -29.4375 C 11.410156 -28.238281 9.914062 -26.601562 8.875 -24.53125 C 7.84375 -22.457031 7.328125 -20.113281 7.328125 -17.5 C 7.328125 -14.894531 7.84375 -12.554688 8.875 -10.484375 C 9.914062 -8.410156 11.410156 -6.769531 13.359375 -5.5625 C 15.316406 -4.363281 17.648438 -3.765625 20.359375 -3.765625 Z M 20.359375 -3.765625 "/></g></g></g><g fill="#ffffff" fill-opacity="1"><g transform="translate(128.634128, 234.446893)"><g><path d="M 7.125 0.25 C 6.488281 0.25 5.953125 0.0351562 5.515625 -0.390625 C 5.078125 -0.828125 4.859375 -1.363281 4.859375 -2 L 4.859375 -31.953125 C 4.859375 -32.847656 5.175781 -33.625 5.8125 -34.28125 C 6.445312 -34.9375 7.21875 -35.265625 8.125 -35.265625 L 9.78125 -35.265625 C 10.445312 -35.265625 11.054688 -35.0625 11.609375 -34.65625 C 12.160156 -34.257812 12.570312 -33.757812 12.84375 -33.15625 L 24.21875 -4.765625 L 35.609375 -33.15625 C 35.878906 -33.757812 36.289062 -34.257812 36.84375 -34.65625 C 37.394531 -35.0625 38.003906 -35.265625 38.671875 -35.265625 L 40.328125 -35.265625 C 41.234375 -35.265625 42 -34.9375 42.625 -34.28125 C 43.257812 -33.625 43.578125 -32.847656 43.578125 -31.953125 L 43.578125 -2 C 43.578125 -1.363281 43.359375 -0.828125 42.921875 -0.390625 C 42.492188 0.0351562 41.960938 0.25 41.328125 0.25 C 40.691406 0.25 40.144531 0.0351562 39.6875 -0.390625 C 39.238281 -0.828125 39.015625 -1.363281 39.015625 -2 L 39.015625 -30.5 L 27.4375 -1.859375 C 27.164062 -1.222656 26.738281 -0.710938 26.15625 -0.328125 C 25.570312 0.0546875 24.925781 0.25 24.21875 0.25 C 23.519531 0.25 22.878906 0.0546875 22.296875 -0.328125 C 21.710938 -0.710938 21.285156 -1.222656 21.015625 -1.859375 L 9.421875 -30.5 L 9.421875 -2 C 9.421875 -1.363281 9.195312 -0.828125 8.75 -0.390625 C 8.300781 0.0351562 7.757812 0.25 7.125 0.25 Z M 7.125 0.25 "/></g></g></g><g fill="#ffffff" fill-opacity="1"><g transform="translate(177.085045, 234.446893)"><g><path d="M 7.125 0.25 C 6.488281 0.25 5.953125 0.0351562 5.515625 -0.390625 C 5.078125 -0.828125 4.859375 -1.363281 4.859375 -2 L 4.859375 -32.703125 C 4.859375 -33.335938 5.078125 -33.878906 5.515625 -34.328125 C 5.953125 -34.785156 6.488281 -35.015625 7.125 -35.015625 L 18.5625 -35.015625 C 21.738281 -35.015625 24.328125 -34.476562 26.328125 -33.40625 C 28.335938 -32.332031 29.773438 -30.957031 30.640625 -29.28125 C 31.515625 -27.613281 31.953125 -25.8125 31.953125 -23.875 C 31.953125 -21.9375 31.515625 -20.128906 30.640625 -18.453125 C 29.773438 -16.785156 28.335938 -15.414062 26.328125 -14.34375 C 24.328125 -13.269531 21.738281 -12.734375 18.5625 -12.734375 L 9.421875 -12.734375 L 9.421875 -2 C 9.421875 -1.363281 9.195312 -0.828125 8.75 -0.390625 C 8.300781 0.0351562 7.757812 0.25 7.125 0.25 Z M 18.109375 -17.046875 C 21.515625 -17.046875 23.910156 -17.695312 25.296875 -19 C 26.691406 -20.3125 27.390625 -21.9375 27.390625 -23.875 C 27.390625 -25.8125 26.691406 -27.429688 25.296875 -28.734375 C 23.910156 -30.046875 21.515625 -30.703125 18.109375 -30.703125 L 9.421875 -30.703125 L 9.421875 -17.046875 Z M 18.109375 -17.046875 "/></g></g></g><g fill="#ffffff" fill-opacity="1"><g transform="translate(210.790033, 234.446893)"><g><path d="M 19.015625 0.5 C 16.640625 0.5 14.347656 0 12.140625 -1 C 9.929688 -2.007812 8.125 -3.539062 6.71875 -5.59375 C 5.3125 -7.644531 4.609375 -10.160156 4.609375 -13.140625 L 4.609375 -32.953125 C 4.609375 -33.585938 4.828125 -34.128906 5.265625 -34.578125 C 5.703125 -35.035156 6.238281 -35.265625 6.875 -35.265625 C 7.507812 -35.265625 8.050781 -35.035156 8.5 -34.578125 C 8.945312 -34.128906 9.171875 -33.585938 9.171875 -32.953125 L 9.171875 -12.984375 C 9.171875 -10.984375 9.628906 -9.28125 10.546875 -7.875 C 11.472656 -6.46875 12.6875 -5.410156 14.1875 -4.703125 C 15.695312 -4.003906 17.304688 -3.65625 19.015625 -3.65625 C 20.710938 -3.65625 22.3125 -4.003906 23.8125 -4.703125 C 25.320312 -5.410156 26.535156 -6.46875 27.453125 -7.875 C 28.378906 -9.28125 28.84375 -10.984375 28.84375 -12.984375 L 28.84375 -32.953125 C 28.84375 -33.585938 29.054688 -34.128906 29.484375 -34.578125 C 29.921875 -35.035156 30.457031 -35.265625 31.09375 -35.265625 C 31.726562 -35.265625 32.269531 -35.035156 32.71875 -34.578125 C 33.175781 -34.128906 33.40625 -33.585938 33.40625 -32.953125 L 33.40625 -13.140625 C 33.40625 -10.160156 32.703125 -7.644531 31.296875 -5.59375 C 29.890625 -3.539062 28.082031 -2.007812 25.875 -1 C 23.675781 0 21.390625 0.5 19.015625 0.5 Z M 19.015625 0.5 "/></g></g></g><g fill="#ffffff" fill-opacity="1"><g transform="translate(248.808459, 234.446893)"><g><path d="M 15.25 0.25 C 14.613281 0.25 14.078125 0.0351562 13.640625 -0.390625 C 13.203125 -0.828125 12.984375 -1.363281 12.984375 -2 L 12.984375 -30.75 L 2.765625 -30.75 C 2.160156 -30.75 1.65625 -30.945312 1.25 -31.34375 C 0.851562 -31.75 0.65625 -32.253906 0.65625 -32.859375 C 0.65625 -33.453125 0.851562 -33.957031 1.25 -34.375 C 1.65625 -34.800781 2.160156 -35.015625 2.765625 -35.015625 L 27.734375 -35.015625 C 28.335938 -35.015625 28.847656 -34.800781 29.265625 -34.375 C 29.679688 -33.957031 29.890625 -33.453125 29.890625 -32.859375 C 29.890625 -32.253906 29.679688 -31.75 29.265625 -31.34375 C 28.847656 -30.945312 28.335938 -30.75 27.734375 -30.75 L 17.5625 -30.75 L 17.5625 -2 C 17.5625 -1.363281 17.332031 -0.828125 16.875 -0.390625 C 16.425781 0.0351562 15.882812 0.25 15.25 0.25 Z M 15.25 0.25 "/></g></g></g><g fill="#ffffff" fill-opacity="1"><g transform="translate(279.353608, 234.446893)"><g><path d="M 7.125 0 C 6.488281 0 5.953125 -0.210938 5.515625 -0.640625 C 5.078125 -1.078125 4.859375 -1.613281 4.859375 -2.25 L 4.859375 -32.703125 C 4.859375 -33.335938 5.078125 -33.878906 5.515625 -34.328125 C 5.953125 -34.785156 6.488281 -35.015625 7.125 -35.015625 L 27.234375 -35.015625 C 27.835938 -35.015625 28.347656 -34.800781 28.765625 -34.375 C 29.179688 -33.957031 29.390625 -33.453125 29.390625 -32.859375 C 29.390625 -32.253906 29.179688 -31.75 28.765625 -31.34375 C 28.347656 -30.945312 27.835938 -30.75 27.234375 -30.75 L 9.421875 -30.75 L 9.421875 -19.65625 L 25.421875 -19.65625 C 26.023438 -19.65625 26.535156 -19.445312 26.953125 -19.03125 C 27.378906 -18.613281 27.59375 -18.101562 27.59375 -17.5 C 27.59375 -16.90625 27.378906 -16.40625 26.953125 -16 C 26.535156 -15.59375 26.023438 -15.390625 25.421875 -15.390625 L 9.421875 -15.390625 L 9.421875 -4.265625 L 27.234375 -4.265625 C 27.835938 -4.265625 28.347656 -4.054688 28.765625 -3.640625 C 29.179688 -3.222656 29.390625 -2.710938 29.390625 -2.109375 C 29.390625 -1.503906 29.179688 -1 28.765625 -0.59375 C 28.347656 -0.195312 27.835938 0 27.234375 0 Z M 7.125 0 "/></g></g></g><g fill="#ffffff" fill-opacity="1"><g transform="translate(311.353301, 234.446893)"><g><path d="M 7.125 0.25 C 6.488281 0.25 5.953125 0.0351562 5.515625 -0.390625 C 5.078125 -0.828125 4.859375 -1.363281 4.859375 -2 L 4.859375 -32.703125 C 4.859375 -33.335938 5.078125 -33.878906 5.515625 -34.328125 C 5.953125 -34.785156 6.488281 -35.015625 7.125 -35.015625 L 18.8125 -35.015625 C 23.351562 -35.015625 26.757812 -34.078125 29.03125 -32.203125 C 31.3125 -30.328125 32.453125 -27.867188 32.453125 -24.828125 C 32.453125 -22.816406 31.890625 -20.984375 30.765625 -19.328125 C 29.648438 -17.679688 28.019531 -16.488281 25.875 -15.75 C 28.28125 -15.113281 29.925781 -13.613281 30.8125 -11.25 C 31.707031 -8.894531 32.15625 -6.582031 32.15625 -4.3125 L 32.15625 -2 C 32.15625 -1.363281 31.9375 -0.828125 31.5 -0.390625 C 31.0625 0.0351562 30.523438 0.25 29.890625 0.25 C 29.191406 0.25 28.632812 0.0390625 28.21875 -0.375 C 27.800781 -0.789062 27.59375 -1.332031 27.59375 -2 L 27.59375 -3.515625 C 27.59375 -5.179688 27.441406 -6.722656 27.140625 -8.140625 C 26.835938 -9.566406 26.113281 -10.835938 24.96875 -11.953125 C 23.832031 -13.078125 22.113281 -13.640625 19.8125 -13.640625 L 9.421875 -13.640625 L 9.421875 -2 C 9.421875 -1.363281 9.195312 -0.828125 8.75 -0.390625 C 8.300781 0.0351562 7.757812 0.25 7.125 0.25 Z M 18.5 -17.953125 C 21.382812 -17.953125 23.671875 -18.519531 25.359375 -19.65625 C 27.046875 -20.789062 27.890625 -22.394531 27.890625 -24.46875 C 27.890625 -26.476562 27.160156 -28.019531 25.703125 -29.09375 C 24.242188 -30.164062 21.757812 -30.703125 18.25 -30.703125 L 9.421875 -30.703125 L 9.421875 -17.953125 Z M 18.5 -17.953125 "/></g></g></g></svg>