<?xml version="1.0" standalone="no"?>
<!DOCTYPE svg PUBLIC "-//W3C//DTD SVG 20010904//EN"
 "http://www.w3.org/TR/2001/REC-SVG-20010904/DTD/svg10.dtd">
<svg version="1.0" xmlns="http://www.w3.org/2000/svg"
 width="600.000000pt" height="600.000000pt" viewBox="0 0 600.000000 600.000000"
 preserveAspectRatio="xMidYMid meet">

<g transform="translate(0.000000,600.000000) scale(0.100000,-0.100000)"
fill="#000000" stroke="none">
<path d="M2610 5070 c-41 -82 -78 -150 -83 -150 -4 0 -73 54 -153 121 -80 66
-147 119 -149 117 -3 -2 -16 -91 -31 -198 -15 -107 -28 -196 -29 -198 -2 -2
-82 27 -180 63 -97 37 -179 65 -181 62 -2 -2 52 -123 121 -268 l124 -264 -47
-6 c-162 -22 -320 -106 -446 -239 -55 -57 -58 -64 -42 -75 22 -17 160 -54 226
-62 27 -3 50 -7 50 -8 0 -1 -7 -24 -15 -51 -12 -41 -22 -54 -54 -72 -58 -33
-173 -161 -213 -239 -36 -68 -78 -189 -78 -224 0 -22 13 -20 158 17 52 13 96
24 98 24 3 0 4 -19 2 -42 l-3 -41 -232 -121 -232 -121 4 -35 c22 -174 42 -299
70 -435 19 -94 29 -166 25 -175 -14 -27 -62 -201 -57 -206 3 -3 19 2 36 11 35
18 37 14 16 -45 -8 -24 -14 -45 -12 -47 3 -2 25 6 51 17 26 11 49 20 51 20 8
0 25 -66 25 -96 0 -22 5 -34 14 -34 7 0 28 -35 45 -77 161 -387 455 -748 826
-1015 110 -79 291 -189 419 -255 l95 -48 88 44 c196 97 407 232 582 375 95 77
109 85 160 91 136 17 312 85 433 166 132 89 269 256 318 387 45 119 53 170 48
307 -6 145 -30 237 -93 350 l-33 60 29 130 c16 72 38 198 49 280 28 199 27
195 51 195 18 0 17 4 -13 43 -41 50 -68 93 -68 105 0 5 33 12 74 15 151 11
244 83 289 222 18 53 40 195 33 203 -3 2 -24 -11 -48 -31 -44 -35 -86 -59
-125 -71 l-22 -7 24 59 c50 122 40 263 -28 406 l-33 69 -27 -82 c-28 -84 -86
-199 -111 -221 -11 -9 -18 -2 -36 32 -40 80 -110 143 -197 177 l-52 20 7 -32
c4 -17 7 -77 7 -132 0 -83 -4 -107 -22 -141 -32 -61 -102 -117 -171 -138 l-22
-7 24 56 c14 31 51 95 82 143 l58 87 4 92 c12 263 -61 569 -173 718 -158 209
-359 234 -860 105 -88 -23 -170 -44 -182 -47 -24 -6 -15 -31 -120 325 -31 105
-59 192 -62 192 -4 0 -40 -67 -81 -150z m-184 -225 c166 -154 144 -149 189
-42 21 51 41 96 45 100 6 7 77 -231 73 -242 -1 -3 -41 -19 -90 -36 -140 -51
-260 -102 -372 -161 -58 -30 -108 -51 -112 -47 -17 17 -127 263 -118 263 5 0
54 -22 109 -50 55 -27 104 -50 109 -50 10 0 15 40 32 233 7 76 16 136 20 135
4 -2 56 -48 115 -103z m1273 -171 c107 -58 182 -173 226 -347 22 -87 45 -266
45 -348 0 -43 19 -35 -195 -84 -269 -61 -562 -171 -856 -321 l-186 -95 -65 32
-65 32 13 56 c7 31 11 57 9 59 -3 3 -119 -116 -123 -127 -1 -4 35 -39 81 -78
l84 -69 59 7 c53 6 76 2 239 -47 194 -57 609 -168 768 -203 60 -14 97 -27 97
-35 0 -22 -75 -130 -115 -164 -37 -33 -38 -34 -109 -27 -107 10 -136 18 -324
84 -216 76 -295 96 -453 115 -69 9 -177 29 -240 45 -106 26 -138 30 -114 13 6
-4 45 -46 88 -94 146 -163 314 -277 575 -389 32 -14 42 -24 42 -42 0 -40 68
-276 111 -382 121 -302 311 -465 543 -465 179 0 340 88 444 244 l51 76 7 -36
c10 -57 -3 -193 -25 -257 -78 -224 -297 -428 -519 -481 -73 -18 -161 -26 -168
-15 -3 5 4 9 16 9 32 0 167 48 230 83 168 90 289 215 325 336 7 23 5 23 -35
-10 -134 -110 -254 -168 -390 -188 -79 -13 -232 -5 -195 10 11 4 31 8 45 9 14
0 45 10 70 21 l45 21 -82 19 c-231 51 -422 215 -541 467 -34 71 -37 85 -43
202 -4 69 -15 154 -24 189 -16 64 -57 155 -73 165 -5 3 -7 -73 -4 -169 3 -115
0 -202 -8 -253 -22 -139 -93 -355 -123 -374 -35 -22 -211 0 -368 47 -140 42
-164 54 -182 88 -10 18 -30 41 -46 51 -15 11 -33 34 -40 52 -6 18 -28 47 -48
64 -20 18 -44 48 -54 68 l-18 35 97 -6 c55 -3 141 -17 197 -32 97 -26 237 -78
263 -98 23 -18 25 2 3 55 -14 37 -25 104 -36 223 -23 263 -21 258 -172 334
-96 48 -154 66 -261 85 -46 8 -86 17 -89 20 -3 3 -5 75 -5 159 1 165 19 315
57 467 13 52 21 97 19 99 -2 2 -12 -3 -21 -11 -45 -39 -47 -37 -39 58 16 217
62 439 117 567 l28 68 -30 -18 c-60 -35 -146 -132 -187 -211 -104 -200 -150
-465 -159 -919 -4 -205 -9 -273 -18 -277 -34 -13 -26 569 10 809 51 331 140
506 319 628 76 52 270 144 431 205 396 149 754 235 951 228 78 -3 99 -7 143
-32z m-1812 -507 c-23 -35 -47 -72 -52 -82 -9 -15 -19 -17 -83 -10 -40 4 -72
10 -72 14 0 18 205 140 237 141 7 0 -6 -29 -30 -63z m2378 -348 c22 -34 49
-96 80 -187 4 -10 18 -6 56 15 48 27 92 68 132 123 18 25 18 24 12 -48 -5 -76
-35 -151 -72 -184 -10 -10 -43 -28 -73 -41 l-54 -24 50 -19 c60 -23 160 -23
223 0 24 9 46 14 48 12 3 -2 -3 -21 -12 -41 -23 -47 -76 -90 -131 -105 -59
-17 -174 -8 -243 19 -30 11 -57 18 -60 16 -2 -3 9 -47 26 -98 17 -50 30 -93
28 -95 -1 -1 -53 45 -116 104 -63 59 -138 123 -166 142 -29 19 -53 36 -53 37
0 2 29 17 64 33 75 35 149 100 177 154 22 44 49 149 49 196 0 17 2 32 4 32 2
0 16 -18 31 -41z m-372 -86 c-14 -38 -30 -80 -35 -95 -6 -16 -13 -28 -16 -28
-4 0 -37 34 -75 74 l-67 75 57 11 c32 7 74 16 93 20 72 17 72 17 43 -57z
m-360 -101 c-18 -65 -29 -89 -38 -84 -34 19 -124 98 -122 106 3 7 178 76 184
71 2 -1 -9 -43 -24 -93z m-1813 33 c-5 -27 -11 -71 -15 -97 -6 -46 -7 -47 -58
-66 -29 -11 -62 -23 -75 -27 l-23 -7 22 44 c31 62 76 127 117 170 20 21 37 37
38 35 1 -1 -2 -24 -6 -52z m1404 -152 c-7 -32 -13 -64 -14 -70 0 -7 -5 -13
-10 -13 -12 0 -110 71 -110 80 0 5 126 58 142 59 3 1 0 -25 -8 -56z m264 -96
c17 -42 28 -77 26 -77 -9 0 -159 43 -163 46 -3 3 19 29 49 59 30 30 55 53 56
52 2 -1 16 -37 32 -80z m366 -65 c20 -48 36 -90 36 -94 0 -8 -193 33 -205 44
-8 7 110 138 126 138 3 0 23 -40 43 -88z m-2082 -303 l-4 -96 -54 -26 c-35
-18 -54 -22 -54 -14 0 28 107 247 114 235 1 -2 0 -46 -2 -99z m2476 1 c64 -34
102 -59 102 -69 0 -35 -43 -303 -64 -406 -49 -231 -64 -271 -122 -338 -61 -70
-108 -152 -140 -247 l-22 -65 -80 0 c-45 1 -84 4 -87 7 -16 16 19 45 79 68 36
13 66 26 66 28 0 2 -14 22 -31 43 l-31 39 41 118 c46 130 94 325 110 447 6 44
13 92 16 108 4 26 0 29 -70 62 -41 19 -75 37 -75 40 0 2 16 26 37 52 31 41 74
124 96 186 7 18 8 18 39 -1 18 -11 79 -43 136 -72z m-2669 -72 c-11 -34 -22
-94 -26 -134 l-6 -73 64 18 c35 10 81 26 103 35 21 9 42 16 47 16 5 0 9 -36 9
-79 l0 -79 -72 -7 c-40 -4 -86 -13 -102 -21 -16 -8 -30 -14 -31 -14 -10 0 -56
354 -47 358 4 1 21 11 37 21 17 11 33 20 36 20 4 1 -2 -27 -12 -61z m706 -253
c87 -19 189 -57 247 -94 44 -28 45 -30 51 -91 4 -35 7 -101 7 -148 0 -83 0
-84 -22 -78 -159 44 -355 67 -418 48 -86 -26 -172 -61 -190 -77 -11 -10 -22
-16 -24 -14 -6 6 -26 442 -21 448 23 22 272 27 370 6z m1188 -46 c49 -52 117
-150 117 -170 0 -7 -104 15 -144 31 -25 9 -35 38 -51 153 -10 64 5 62 78 -14z
m-1768 -83 c18 -13 17 -15 -21 -25 -76 -20 -157 -96 -202 -188 -16 -34 -32
-43 -32 -20 0 21 67 150 94 179 55 61 122 83 161 54z m49 -89 c17 -12 14 -15
-27 -31 -51 -19 -124 -91 -157 -155 -18 -35 -56 -67 -68 -56 -9 8 22 78 58
134 25 39 57 72 87 91 51 33 79 37 107 17z m20 -99 c3 -13 6 -53 6 -89 l0 -65
-94 -52 c-51 -29 -97 -52 -101 -52 -12 0 4 68 29 124 27 60 68 112 111 137 38
24 41 24 49 -3z m355 -172 l24 -24 -37 -16 c-60 -25 -96 -55 -132 -112 -31
-49 -88 -94 -101 -80 -11 10 38 144 67 184 60 83 126 100 179 48z m1544 -66
c76 -32 185 -104 170 -113 -4 -3 -44 -11 -87 -18 l-80 -12 -41 47 c-23 26 -52
65 -64 86 l-22 40 26 0 c15 0 59 -14 98 -30z m567 -36 c12 -55 11 -57 -17 -86
-31 -33 -112 -92 -118 -86 -12 12 101 228 119 228 3 0 10 -25 16 -56z m-2444
-90 c5 -71 9 -131 7 -133 -3 -4 -53 104 -83 181 l-19 47 32 20 c18 11 37 19
42 18 6 -2 15 -62 21 -133z m426 79 c23 -20 23 -43 1 -43 -29 0 -82 -43 -120
-98 -26 -37 -50 -59 -81 -73 -25 -10 -47 -17 -50 -15 -6 7 17 73 43 126 23 44
71 96 110 119 25 14 73 6 97 -16z m101 -133 c15 -17 27 -39 27 -49 0 -26 -73
-88 -176 -150 l-87 -52 7 48 c11 84 38 145 88 197 43 44 50 48 80 42 18 -3 45
-20 61 -36z m-283 -177 c-12 -59 -21 -185 -13 -180 50 28 252 153 266 165 14
13 23 13 55 3 239 -76 406 -121 450 -121 36 0 45 -11 65 -77 l15 -52 -72 -34
c-134 -64 -230 -162 -297 -306 -18 -36 -33 -68 -35 -70 -1 -2 -30 18 -62 43
-137 105 -299 269 -387 391 -42 58 -44 64 -51 156 l-7 96 29 11 c49 18 53 15
44 -25z m1085 -365 l40 -12 -75 -7 c-91 -8 -141 -26 -217 -77 -93 -63 -185
-174 -227 -275 -17 -42 -25 -44 -57 -18 l-23 19 26 60 c68 159 163 251 318
308 45 16 163 17 215 2z"/>
<path d="M3684 4495 c-7 -18 0 -112 9 -122 4 -3 16 2 26 11 13 12 27 15 42 11
20 -7 21 -5 15 21 -18 72 -76 122 -92 79z"/>
<path d="M3172 4339 c3 -8 14 -34 24 -58 17 -44 17 -44 -5 -63 -13 -10 -31
-18 -40 -18 -18 1 -240 31 -570 80 -117 17 -215 29 -218 27 -9 -10 87 -175
147 -251 106 -135 178 -177 305 -178 87 -1 136 16 211 73 57 44 73 51 122 55
98 9 99 9 121 69 12 31 24 79 27 108 l6 52 -53 51 c-63 58 -85 74 -77 53z
m-131 -231 c19 -6 -70 -95 -118 -119 -56 -27 -149 -30 -203 -7 -63 27 -112 89
-125 159 l-7 35 221 -32 c121 -18 226 -34 232 -36z"/>
<path d="M1460 3300 c0 -13 11 -13 30 0 12 8 11 10 -7 10 -13 0 -23 -4 -23
-10z"/>
</g>
</svg>
